<svg xmlns="http://www.w3.org/2000/svg" width="698" height="931" viewBox="0 0 698 931">
  <g fill="none" fill-rule="evenodd">
    <path fill="#339ECD" d="M374.334411,369.767779 L698,11.9630682 L686.070659,0 L329.245283,323.669043 C347.543044,335.397751 362.993747,351.189096 374.334411,369.767779"/>
    <path fill="#222321" d="M253.560559,508.586467 C218.564861,508.586467 190.196596,480.197376 190.196596,445.172477 C190.196596,410.209384 218.564861,381.820293 253.560559,381.820293 C288.561016,381.820293 316.910244,410.209384 316.910244,445.172477 C316.910244,480.197376 288.561016,508.586467 253.560559,508.586467 Z M286.412158,340.385414 L261.289787,1.01306241 L244.383291,1.01306241 L219.203808,340.888181 C213.676981,342.706699 208.328632,344.96499 203.22539,347.58223 L26.5573226,206.25127 L14.6017681,218.211891 L155.942171,394.866082 C153.162695,400.280036 150.775868,405.918631 148.906622,411.810393 L0,436.631384 L0,453.536472 L148.830472,478.328938 C150.763969,484.464357 153.238845,490.343044 156.169431,495.957868 L69.5083187,617.287504 L81.450785,629.236239 L202.776819,542.579684 C208.150155,545.393039 213.798346,547.777318 219.670227,549.682602 L244.383291,698 L261.289787,698 L285.900525,550.186558 C292.166244,548.257502 298.1583,545.760308 303.899298,542.818587 L480.568555,684.159056 L492.503882,672.210321 L351.183707,495.540678 C353.944145,490.126724 356.317884,484.488129 358.18713,478.63559 L696.986938,453.536472 L696.986938,436.631384 L358.099081,411.534644 C347.222715,377.692376 320.384589,351.029095 286.412158,340.385414 L286.412158,340.385414 Z"/>
    <path fill="#339ECD" d="M64.8524175 832.179006C64.8524175 835.092286 65.6367616 837.470011 67.2054498 839.31218 68.7753263 841.154349 70.8871134 842.6606 73.5419993 843.834519L81.2666001 847.355082 83.6814292 844.805214C85.450957 842.862629 86.7784 840.859076 87.6637581 838.795751 88.5479278 836.731231 88.991201 834.364265 88.991201 831.692463 88.991201 829.993746 88.6798402 828.526945 88.0559301 827.292058 87.43202 826.058367 86.5573575 825.045831 85.4307542 824.256843 84.3041509 823.467854 82.9767079 822.890458 81.4484254 822.527045 79.9189544 822.162436 78.2492522 821.979535 76.4393188 821.979535 74.7494138 821.979535 73.19974 822.192322 71.7926743 822.617898 70.3832317 823.042278 69.1674984 823.679446 68.1419091 824.529402 67.1151313 825.379358 66.3093961 826.442102 65.72708 827.716438 65.1435755 828.99197 64.8524175 830.479094 64.8524175 832.179006zM70.6458681 859.375204L68.7147179 861.31779C66.7835677 863.260375 65.1732855 865.384667 63.8862482 867.691861 62.5980224 869.99786 61.955098 872.730629 61.955098 875.886584 61.955098 877.70843 62.2771544 879.316293 62.9212673 880.712564 63.5641917 882.108835 64.4602455 883.273191 65.6070516 884.203241 66.7538577 885.135682 68.1205179 885.842186 69.7105972 886.328729 71.2994882 886.814076 73.0595088 887.05675 74.990659 887.05675 76.9218093 887.05675 78.6913371 886.834399 80.3016192 886.388501 81.9095246 885.943798 83.2892572 885.265985 84.4348749 884.355062 85.581681 883.444138 86.4658507 882.291737 87.0909492 880.895466 87.7136709 879.499195 88.0262201 877.829169 88.0262201 875.886584 88.0262201 872.730629 87.2501948 870.130553 85.7028978 868.086356 84.1532241 866.043353 82.071147 864.434295 79.4566667 863.260375L70.6458681 859.375204zM74.990659 901.625544C70.7658966 901.625544 66.8037705 901.129438 63.1019041 900.13842 59.4000377 899.147403 56.1818501 897.639956 53.446153 895.616081 50.7104559 893.593401 48.5475677 891.023211 46.9586767 887.906706 45.3685973 884.790201 44.574746 881.107059 44.574746 876.858474 44.574746 874.429346 44.937208 872.153233 45.6609437 870.028941 46.3858678 867.903454 47.3306459 865.941741 48.4976549 864.140217 49.6646638 862.339888 51.0028023 860.710507 52.5108821 859.253269 54.0201503 857.796031 55.5591284 856.543213 57.1278166 855.490033L59.4214289 854.032795C57.7315239 852.98081 56.1105461 851.766246 54.5632491 850.390297 53.0135754 849.015544 51.6362196 847.436372 50.4288051 845.65517 49.2225789 843.875164 48.2659168 841.860852 47.5623839 839.614625 46.8576627 837.369594 46.5058962 834.890257 46.5058962 832.179006 46.5058962 828.293834 47.3413415 824.813916 49.0110437 821.736861 50.6795575 818.662196 52.9030541 816.060924 55.6791569 813.936632 58.4552596 811.81234 61.6437371 810.193718 65.2445895 809.079571 68.8442535 807.967814 72.5770184 807.41074 76.4393188 807.41074 80.5428645 807.41074 84.4146721 807.876961 88.0559301 808.807011 91.6971881 809.738257 94.8761585 811.15485 97.5916528 813.056791 100.307147 814.958731 102.449833 817.366342 104.018521 820.280818 105.587209 823.194099 106.371553 826.634567 106.371553 830.599833 106.371553 832.947672 106.089902 835.082723 105.5266 837.004986 104.963299 838.927249 104.178955 840.698887 103.173568 842.316314 102.166993 843.936131 100.990477 845.423255 99.6428314 846.778881 98.2939973 848.134507 96.8370187 849.419602 95.2683305 850.632971L92.6122562 852.697491C94.6242177 853.790121 96.4745567 855.04533 98.1644617 856.460728 99.8543666 857.878516 101.303026 859.517461 102.509253 861.378757 103.716667 863.240053 104.661445 865.364345 105.345964 867.752829 106.029294 870.141312 106.371553 872.851369 106.371553 875.886584 106.371553 880.096914 105.5266 883.808747 103.837884 887.026864 102.147979 890.243786 99.8745694 892.935911 97.0176555 895.099652 94.1607416 897.265784 90.8320328 898.89397 87.0303408 899.9866 83.2286488 901.079229 79.2154215 901.625544 74.990659 901.625544L74.990659 901.625544zM112.449927 838.977797L122.04705 838.977797 122.04705 825.49521 134.044339 822.606676 140.282173 822.606676 140.282173 838.977797 158.037736 838.977797 158.037736 853.424019 140.282173 853.424019 140.282173 877.981885C140.282173 880.629806 140.901114 882.656639 142.142539 884.061198 143.38042 885.465758 145.360085 886.167445 148.080352 886.167445 149.759996 886.167445 151.388849 885.9375 152.969274 885.47524 154.547336 885.014165 155.91751 884.442859 157.077433 883.760137L158.037736 883.760137 158.037736 897.723949C157.077433 898.205173 155.91751 898.627134 154.557967 898.98746 153.197243 899.348971 151.769191 899.650033 150.269087 899.890645 148.770164 900.131257 147.27006 900.312605 145.771137 900.432319 144.271033 900.553218 142.92212 900.612482 141.722037 900.612482 138.72301 900.612482 136.012192 900.252156 133.594308 899.529134 131.174061 898.807297 129.104626 897.703799 127.386003 896.21864 125.666199 894.734666 124.346816 892.878514 123.426673 890.651369 122.506531 888.424223 122.04705 885.805934 122.04705 882.796502L122.04705 853.424019 112.449927 853.424019 112.449927 838.977797M210.48586 868.786461C210.48586 866.860652 210.384186 865.065204 210.183232 863.400119 209.979886 861.73622 209.594724 860.321194 209.028943 859.157412 208.217949 857.392778 207.013421 856.069006 205.414161 855.184911 203.813706 854.303186 201.617565 853.861139 198.823346 853.861139 196.636774 853.861139 194.591349 854.283039 192.689462 855.125655 190.785182 855.968271 189.104584 856.991024 187.647667 858.193915L187.647667 899.599419 169.181422 899.599419 169.181422 805.234736 181.329575 802.345428 187.647667 802.345428 187.647667 843.750933 188.618945 843.750933C191.292352 841.825123 193.943032 840.380469 196.576966 839.418157 199.208508 838.45466 202.225211 837.973503 205.627077 837.973503 209.635393 837.973503 213.361417 838.736717 216.803952 840.260773 220.24529 841.786014 222.99884 844.232089 225.0646 847.602553 226.279894 849.60895 227.229641 851.905701 227.919823 854.492804 228.607612 857.081093 228.952104 860.080616 228.952104 863.490188L228.952104 899.599419 210.48586 899.599419 210.48586 868.786461"/>
    <polyline fill="#222321" points="280.618 900.612 280.618 811.463 300.273 811.463 300.273 885.108 334.311 885.108 334.311 900.612 280.618 900.612"/>
    <path fill="#222321" d="M341.402032 840.393092L353.431852 837.478653 359.687216 837.478653 359.687216 900.612482 341.402032 900.612482 341.402032 840.393092zM351.026125 823.880726C347.89785 823.880726 345.51226 823.091748 343.868169 821.513791 342.222893 819.935833 341.402032 817.770924 341.402032 815.017867 341.402032 812.387938 342.222893 810.293559 343.868169 808.735923 345.51226 807.178288 347.89785 806.397678 351.026125 806.397678 354.154399 806.397678 356.538805 807.178288 358.184081 808.735923 359.828172 810.293559 360.650218 812.387938 360.650218 815.017867 360.650218 817.770924 359.828172 819.935833 358.184081 821.513791 356.538805 823.091748 354.154399 823.880726 351.026125 823.880726L351.026125 823.880726zM398.261918 869.840114C401.697553 869.840114 404.335481 869.001298 406.175701 867.322472 408.014727 865.64484 408.93424 863.085377 408.93424 859.646472 408.93424 856.208762 408.014727 853.650493 406.175701 851.970472 404.335481 850.292841 401.697553 849.45283 398.261918 849.45283 394.825089 849.45283 392.187161 850.292841 390.348135 851.970472 388.507915 853.650493 387.588402 856.208762 387.588402 859.646472 387.588402 863.085377 388.507915 865.64484 390.348135 867.322472 392.187161 869.001298 394.825089 869.840114 398.261918 869.840114zM392.501229 902.243253C392.217015 902.243253 391.913696 902.201431 391.591269 902.121373L389.044098 903.820513C387.588402 904.790767 386.415724 905.984466 385.52726 907.400416 384.637601 908.816365 384.193369 910.373312 384.193369 912.072452 384.193369 913.650907 384.526543 915.015476 385.192891 916.168549 385.860434 917.321622 386.759646 918.282316 387.891722 919.050633 389.022603 919.81895 390.317087 920.38533 391.772783 920.749773 393.22848 921.114215 394.743885 921.295839 396.321387 921.295839 398.868558 921.295839 401.18167 921.012649 403.264308 920.44627 405.345751 919.878695 407.134622 919.111573 408.63092 918.140124 410.126024 917.16987 411.278401 916.03711 412.08805 914.74304 412.896505 913.447775 413.30133 912.072452 413.30133 910.615876 413.30133 909.564369 413.199825 908.65386 412.99801 907.885543 412.795 907.117226 412.421224 906.460034 411.875487 905.913967 411.32975 905.367901 410.581004 904.932959 409.631637 904.609143 408.681075 904.285327 407.479737 904.02245 406.024041 903.820513L393.409994 902.363937C393.086373 902.282684 392.783053 902.243253 392.501229 902.243253zM395.350525 931.004354C391.469463 931.004354 387.800965 930.690097 384.343835 930.063972 380.887899 929.435458 377.855894 928.455645 375.247821 927.120948 372.640941 925.786251 370.567858 924.076358 369.032151 921.993658 367.495251 919.909762 366.728592 917.412433 366.728592 914.499282 366.728592 912.396268 367.182378 910.465319 368.092337 908.70524 369.002297 906.945161 370.214382 905.407332 371.730982 904.092949 373.247581 902.778565 374.994656 901.686432 376.976983 900.816549 378.956921 899.946666 381.039558 899.330101 383.222506 898.965658L383.222506 898.723094C382.009227 897.75284 381.059859 896.569895 380.372016 895.174259 379.684172 893.778623 379.341445 892.130864 379.341445 890.228592 379.341445 889.01458 379.583862 887.862702 380.068696 886.769374 380.554724 885.67724 381.180471 884.706986 381.949518 883.857417 382.716177 883.007847 383.55568 882.289716 384.46564 881.703023 385.3756 881.117524 386.254511 880.723209 387.103568 880.520077L387.103568 879.670508C381.806217 878.335811 377.652885 875.960361 374.641181 872.540574 371.629477 869.123177 370.123625 864.825143 370.123625 859.646472 370.123625 856.248193 370.800721 853.195239 372.154913 850.484024 373.509105 847.775199 375.419781 845.478612 377.885748 843.597849 380.351715 841.715891 383.313263 840.280823 386.770394 839.289061 390.22633 838.298494 394.056042 837.802612 398.261918 837.802612 401.616349 837.802612 404.729558 838.126429 407.600349 838.772867 410.469946 839.420499 413.057718 840.351322 415.362472 841.564139L416.211529 841.200891 417.667225 841.200891 429.795244 838.772867 435.616836 838.772867 435.616836 849.937957 424.095457 849.937957C424.822708 851.355102 425.388746 852.871422 425.792377 854.489309 426.196007 856.107196 426.399016 857.826648 426.399016 859.646472 426.399016 862.922872 425.711173 865.87665 424.337874 868.505417 422.962187 871.135379 421.032404 873.380585 418.546136 875.241035 416.059869 877.10268 413.088767 878.528189 409.631637 879.518756 406.175701 880.510518 402.385397 881.005204 398.261918 881.005204L395.47233 881.005204C395.147515 881.490331 394.885992 882.057906 394.684176 882.704344 394.481167 883.351976 394.380857 884.079667 394.380857 884.88861 394.380857 886.345186 394.885992 887.37638 395.896262 887.983386 396.906532 888.590392 398.504335 889.01458 400.687283 889.257143L414.270998 890.713719C417.019984 890.998104 419.475203 891.563289 421.639044 892.412859 423.800497 893.262428 425.631163 894.384434 427.127462 895.78007 428.622566 897.175707 429.765389 898.874846 430.553544 900.877489 431.341698 902.880131 431.735775 905.194641 431.735775 907.825798 431.735775 911.182256 430.774465 914.277031 428.85543 917.10893 426.9352 919.939635 424.316379 922.387973 421.00255 924.451555 417.686332 926.513942 413.825572 928.12227 409.420268 929.275342 405.012577 930.428415 400.32306 931.004354 395.350525 931.004354L395.350525 931.004354zM482.999648 868.786461C482.999648 866.860652 482.897975 865.065204 482.69702 863.400119 482.493674 861.73622 482.108512 860.321194 481.542731 859.157412 480.731737 857.392778 479.527209 856.069006 477.927949 855.184911 476.327494 854.303186 474.131353 853.861139 471.337134 853.861139 469.150562 853.861139 467.105137 854.283039 465.20325 855.125655 463.298971 855.968271 461.618372 856.991024 460.161455 858.193915L460.161455 899.599419 441.69521 899.599419 441.69521 805.234736 453.843363 802.345428 460.161455 802.345428 460.161455 843.750933 461.132733 843.750933C463.80614 841.825123 466.45682 840.380469 469.090754 839.418157 471.722296 838.45466 474.738999 837.973503 478.140865 837.973503 482.150377 837.973503 485.875205 838.736717 489.31774 840.260773 492.759078 841.786014 495.512628 844.232089 497.578388 847.602553 498.793682 849.60895 499.743429 851.905701 500.433611 854.492804 501.1214 857.081093 501.465893 860.080616 501.465893 863.490188L501.465893 899.599419 482.999648 899.599419 482.999648 868.786461M509.570392 838.977797L519.167763 838.977797 519.167763 825.49521 531.165363 822.606676 537.403359 822.606676 537.403359 838.977797 555.1582 838.977797 555.1582 853.424019 537.403359 853.424019 537.403359 877.981885C537.403359 880.629806 538.022316 882.656639 539.262591 884.061198 540.501686 885.465758 542.481402 886.167445 545.200559 886.167445 546.880246 886.167445 548.509142 885.9375 550.089607 885.47524 551.668891 885.014165 553.03792 884.442859 554.199054 883.760137L555.1582 883.760137 555.1582 897.723949C554.199054 898.205173 553.03792 898.627134 551.679522 898.98746 550.318763 899.348971 548.889493 899.650033 547.390531 899.890645 545.890388 900.131257 544.391426 900.312605 542.891283 900.432319 541.392322 900.553218 540.042193 900.612482 538.84326 900.612482 535.844155 900.612482 533.134448 900.252156 530.71532 899.529134 528.295011 898.807297 526.225522 897.703799 524.506854 896.21864 522.787006 894.734666 521.467588 892.878514 520.547422 890.651369 519.627256 888.424223 519.167763 885.805934 519.167763 882.796502L519.167763 853.424019 509.570392 853.424019 509.570392 838.977797"/>
  </g>
</svg>
